<?xml version="1.0" standalone="no"?>
<!DOCTYPE svg PUBLIC "-//W3C//DTD SVG 20010904//EN"
 "http://www.w3.org/TR/2001/REC-SVG-20010904/DTD/svg10.dtd">
<svg version="1.0" xmlns="http://www.w3.org/2000/svg"
 width="431.000000pt" height="166.000000pt" viewBox="0 0 431.000000 166.000000"
 preserveAspectRatio="xMidYMid meet">

<g transform="translate(0.000000,166.000000) scale(0.100000,-0.100000)"
fill="#FFFF" stroke="none">
<path d="M674 1596 c-105 -26 -194 -101 -241 -203 -28 -62 -40 -157 -26 -200
9 -26 8 -29 -11 -31 -47 -3 -107 -36 -144 -77 -64 -72 -80 -170 -42 -254 11
-24 18 -47 14 -50 -5 -6 -9 -7 -35 -10 -5 0 -7 -5 -4 -11 3 -5 0 -7 -7 -5 -30
12 -88 -83 -88 -141 0 -69 67 -153 127 -160 20 -2 23 2 23 31 0 36 10 48 32
40 9 -4 13 -17 10 -40 -5 -40 10 -45 58 -20 59 31 67 55 68 214 1 135 8 171
29 158 4 -3 8 -37 8 -76 0 -41 4 -71 10 -71 83 1 205 114 205 190 0 20 4 21
40 15 l40 -7 0 152 c0 139 1 151 18 148 15 -3 17 -20 20 -151 l3 -148 37 7
c20 3 54 14 74 24 42 19 39 21 53 -47 10 -48 58 -108 107 -132 70 -34 83 -30
83 26 0 37 4 48 18 51 14 3 17 -4 17 -47 0 -56 3 -58 58 -36 116 49 162 194
96 302 -41 66 -99 97 -181 98 -59 0 -61 1 -45 19 13 14 17 37 16 100 0 69 -5
90 -30 144 -17 34 -33 59 -37 56 -4 -4 -7 -1 -7 7 0 20 -69 81 -82 73 -7 -4
-8 -2 -4 4 9 15 -43 41 -114 58 -67 16 -99 16 -166 0z m-324 -1116 c-8 -5 -19
-10 -25 -10 -5 0 -3 5 5 10 8 5 20 10 25 10 6 0 3 -5 -5 -10z"/>
<path d="M2333 1042 c-46 -14 -83 -29 -83 -33 0 -5 12 -15 27 -23 l28 -14 -3
-304 -4 -303 -26 -22 -27 -22 128 -1 c70 0 127 4 127 8 0 5 -11 15 -25 22
l-25 13 0 354 c0 330 -1 353 -17 352 -10 -1 -55 -13 -100 -27z"/>
<path d="M1676 983 c4 -21 -17 -79 -75 -216 -44 -103 -83 -193 -87 -199 -4 -7
-12 0 -21 16 -8 15 -19 24 -25 20 -6 -4 -8 -3 -5 4 9 14 -52 64 -70 58 -8 -3
-11 -2 -8 4 8 13 -59 23 -112 16 -24 -3 -58 -15 -74 -27 l-29 -21 2 -161 3
-161 30 -17 c17 -10 42 -21 58 -24 l27 -7 0 97 c0 86 2 96 18 93 14 -3 17 -17
20 -97 3 -91 3 -93 25 -87 12 3 26 6 30 6 5 0 5 5 1 12 -4 6 -3 8 4 5 12 -8
44 2 37 12 -2 4 19 9 48 10 62 3 68 7 40 29 l-22 17 24 68 c14 37 34 86 45
108 l21 40 132 -3 132 -3 42 -104 c40 -97 42 -105 26 -117 -10 -7 -22 -14 -26
-14 -5 0 -5 -4 -2 -10 7 -11 238 -14 248 -3 4 3 -5 14 -19 24 -20 13 -44 59
-96 185 -38 93 -96 233 -129 312 -32 79 -59 148 -59 153 0 5 -36 9 -80 9 l-79
0 5 -27z m92 -211 c28 -71 52 -133 52 -140 0 -9 -31 -12 -110 -12 -78 0 -110
3 -110 12 0 16 104 268 110 268 3 0 29 -58 58 -128z"/>
<path d="M3585 845 c-41 -19 -66 -23 -140 -23 -107 0 -160 -18 -205 -68 -26
-30 -30 -43 -30 -92 0 -66 13 -90 71 -132 l39 -28 -34 -26 c-47 -35 -53 -61
-26 -98 l22 -30 -46 -42 c-36 -34 -46 -49 -46 -75 0 -118 280 -166 428 -73 49
31 86 96 77 135 -15 59 -74 88 -230 112 -60 10 -111 19 -113 21 -2 1 3 15 12
32 14 27 19 29 91 35 85 6 154 34 180 73 28 43 31 116 5 168 l-22 46 22 30
c20 28 22 61 3 59 -4 0 -30 -11 -58 -24z m-108 -69 c24 -21 28 -32 31 -95 5
-83 -1 -114 -28 -141 -46 -46 -113 -7 -125 74 -10 66 2 130 30 160 30 32 56
33 92 2z m7 -465 c59 -19 71 -36 62 -84 -8 -42 -48 -75 -100 -84 -106 -17
-156 58 -106 158 20 38 22 39 58 33 20 -4 59 -14 86 -23z"/>
<path d="M2653 799 c-51 -16 -93 -33 -93 -38 0 -4 11 -13 25 -19 14 -6 25 -15
26 -19 0 -5 1 -76 2 -159 3 -173 10 -193 80 -225 54 -24 90 -24 162 1 72 25
75 25 75 0 0 -19 7 -20 100 -20 103 0 122 8 70 30 l-30 12 0 234 c0 129 -1
234 -2 234 -29 -4 -193 -60 -195 -67 -2 -5 8 -15 22 -21 14 -6 25 -20 25 -29
0 -10 3 -82 6 -159 7 -161 9 -158 -79 -170 -37 -5 -48 -3 -66 15 -20 20 -21
30 -21 226 0 113 -3 205 -7 204 -5 0 -50 -14 -100 -30z"/>
<path d="M3873 808 c-77 -11 -83 -16 -83 -85 0 -31 2 -33 33 -33 28 0 38 7 65
45 29 42 35 45 76 45 62 0 76 -17 76 -94 l0 -62 -95 -23 c-146 -35 -185 -70
-185 -167 0 -63 23 -96 78 -112 53 -16 92 -15 149 4 33 11 48 13 51 5 4 -13
222 -16 222 -3 0 5 -16 16 -35 25 l-35 17 0 178 c0 169 -1 181 -22 207 -12 15
-36 34 -54 41 -45 19 -155 25 -241 12z m167 -323 c0 -93 -1 -96 -26 -105 -36
-14 -80 -12 -93 4 -18 21 -23 98 -9 126 13 24 88 70 115 70 10 0 13 -24 13
-95z"/>
<path d="M910 733 c-8 -2 -22 -7 -30 -10 -8 -4 -18 -6 -21 -5 -4 1 -16 -9 -28
-22 -28 -30 -39 -99 -20 -123 9 -11 10 -14 2 -9 -7 4 -13 2 -13 -4 0 -17 62
-76 88 -84 21 -7 22 -4 22 38 0 25 5 48 10 51 19 12 36 -14 35 -50 -2 -42 18
-47 57 -12 34 29 48 59 48 97 0 38 -28 102 -41 94 -5 -3 -9 -1 -9 5 0 20 -70
44 -100 34z"/>
<path d="M1112 557 c-16 -45 -15 -126 3 -157 13 -23 14 -16 15 83 0 59 -1 107
-3 107 -2 0 -8 -15 -15 -33z"/>
<path d="M610 574 c-90 -32 -131 -84 -129 -161 2 -52 24 -107 40 -98 5 4 8 2
7 -3 -5 -16 43 -52 69 -52 22 0 23 3 23 71 0 62 2 70 18 67 14 -3 18 -16 20
-71 3 -73 15 -83 59 -52 19 14 21 24 22 140 l2 126 -34 14 c-44 18 -79 25 -97
19z"/>
<path d="M781 415 c0 -48 3 -64 9 -50 5 11 9 34 9 50 0 17 -4 39 -9 50 -6 14
-9 -2 -9 -50z"/>
</g>
</svg>
