<?xml version="1.0" standalone="no"?>
<!DOCTYPE svg PUBLIC "-//W3C//DTD SVG 20010904//EN"
 "http://www.w3.org/TR/2001/REC-SVG-20010904/DTD/svg10.dtd">
<svg version="1.0" xmlns="http://www.w3.org/2000/svg"
 width="500.000000pt" height="500.000000pt" viewBox="0 0 500.000000 500.000000"
 preserveAspectRatio="xMidYMid meet">

<g transform="translate(0.000000,500.000000) scale(0.100000,-0.100000)"
fill="#FFF" stroke="none">
<path d="M918 3295 c-26 -7 -67 -24 -92 -39 -53 -31 -129 -114 -121 -133 2 -8
1 -12 -4 -9 -27 17 -63 -166 -44 -221 10 -27 9 -29 -14 -31 -41 -3 -106 -37
-140 -73 -62 -66 -80 -175 -43 -258 11 -24 18 -47 14 -50 -5 -6 -9 -7 -35 -10
-5 0 -7 -5 -4 -11 3 -5 0 -7 -7 -5 -15 6 -49 -28 -72 -74 -35 -67 -3 -167 68
-210 45 -28 60 -24 66 19 3 23 11 36 23 38 14 3 17 -4 17 -37 0 -46 12 -51 60
-26 59 31 67 55 68 213 1 79 4 147 8 153 15 26 27 -3 27 -69 1 -77 1 -78 58
-62 70 19 159 121 159 180 0 20 4 21 40 15 l40 -7 0 151 c0 144 1 151 20 151
19 0 20 -7 20 -150 l0 -151 38 6 c20 4 54 15 74 25 42 19 39 21 53 -47 10 -48
58 -108 107 -132 67 -32 76 -29 80 27 2 34 7 47 18 47 11 0 16 -13 18 -47 3
-53 6 -55 60 -33 79 34 125 106 125 197 0 113 -84 198 -202 204 -31 2 -58 3
-60 4 -2 0 3 7 10 17 10 11 14 42 13 97 0 100 -32 173 -105 247 -55 56 -103
82 -177 98 -66 14 -104 13 -164 -4z m-323 -1115 c-3 -5 -12 -10 -18 -10 -7 0
-6 4 3 10 19 12 23 12 15 0z"/>
<path d="M2583 2742 c-46 -14 -83 -29 -83 -33 0 -5 13 -15 28 -23 l28 -15 -4
-303 -4 -303 -26 -22 -27 -22 128 -1 c70 0 127 4 127 8 0 5 -11 15 -25 22
l-25 13 0 354 c0 330 -1 353 -17 352 -10 -1 -55 -13 -100 -27z"/>
<path d="M1926 2683 c4 -21 -16 -78 -76 -218 -76 -179 -100 -225 -100 -197 0
21 -65 85 -105 103 -55 25 -121 24 -175 -3 l-45 -23 0 -164 0 -165 30 -17 c17
-9 42 -19 58 -23 l27 -6 0 96 c0 86 2 95 18 92 14 -3 17 -17 20 -96 1 -50 7
-92 12 -92 19 0 90 32 85 39 -2 4 19 9 48 10 62 3 68 7 39 29 l-22 17 30 78
c16 42 37 91 45 107 l16 31 132 -3 132 -3 42 -104 c40 -97 42 -105 26 -117
-10 -7 -22 -14 -26 -14 -5 0 -5 -4 -2 -10 7 -11 238 -14 248 -3 4 3 -5 14 -19
24 -20 13 -44 59 -96 185 -38 93 -96 233 -129 312 -32 79 -59 148 -59 153 0 5
-36 9 -80 9 l-79 0 5 -27z m92 -211 c28 -71 52 -133 52 -140 0 -9 -31 -12
-110 -12 -78 0 -110 3 -110 12 0 16 104 268 110 268 3 0 29 -58 58 -128z"/>
<path d="M3835 2545 c-41 -19 -67 -23 -140 -23 -107 0 -161 -18 -205 -68 -26
-30 -30 -43 -30 -92 0 -66 13 -90 71 -132 l39 -28 -34 -26 c-47 -35 -53 -61
-26 -98 l22 -30 -46 -42 c-36 -34 -46 -49 -46 -75 0 -118 280 -166 428 -73 49
31 86 96 77 135 -15 59 -74 88 -230 112 -60 10 -111 19 -113 21 -2 1 3 15 12
32 14 27 19 29 91 35 85 6 154 34 180 73 28 43 31 116 5 168 l-22 46 22 30
c20 28 22 61 3 59 -4 0 -30 -11 -58 -24z m-108 -69 c24 -21 28 -32 31 -95 5
-83 -1 -114 -28 -141 -46 -46 -113 -7 -125 74 -11 69 2 130 32 160 32 32 54
33 90 2z m7 -465 c59 -19 71 -36 62 -84 -13 -68 -115 -109 -184 -73 -49 25
-56 100 -16 160 14 23 21 26 53 20 20 -4 58 -14 85 -23z"/>
<path d="M2903 2499 c-51 -17 -93 -33 -93 -37 0 -4 12 -14 26 -22 l27 -15 1
-155 c1 -179 8 -198 79 -231 54 -24 90 -24 162 1 72 25 75 25 75 0 0 -19 7
-20 100 -20 103 0 122 8 70 30 l-30 12 0 234 c0 129 -1 234 -2 234 -29 -4
-193 -60 -195 -67 -2 -5 8 -15 22 -21 16 -7 25 -20 25 -34 1 -13 3 -84 6 -160
7 -155 8 -152 -79 -164 -37 -5 -48 -3 -66 15 -20 20 -21 30 -21 226 0 113 -3
205 -7 204 -5 0 -50 -14 -100 -30z"/>
<path d="M4118 2508 c-72 -11 -78 -17 -78 -85 0 -31 2 -33 33 -33 28 0 38 7
65 45 29 42 35 45 76 45 62 0 76 -17 76 -94 l0 -62 -95 -23 c-146 -35 -185
-70 -185 -167 0 -63 23 -96 78 -112 53 -16 92 -15 149 4 33 11 48 13 51 5 4
-13 222 -16 222 -3 0 5 -16 16 -35 25 l-35 17 0 178 c0 169 -1 181 -22 207
-12 15 -36 34 -55 41 -45 19 -163 25 -245 12z m172 -323 c0 -93 -1 -96 -26
-105 -37 -15 -80 -12 -94 5 -18 22 -23 96 -8 125 13 24 88 70 115 70 10 0 13
-24 13 -95z"/>
<path d="M1143 2433 c-13 -2 -23 -9 -23 -14 0 -6 -4 -8 -9 -5 -4 3 -18 -5 -30
-18 -28 -30 -39 -99 -20 -123 9 -11 10 -14 2 -9 -7 4 -13 2 -13 -4 0 -17 63
-78 88 -85 20 -6 22 -3 22 38 0 32 5 47 16 51 22 8 23 8 25 -42 4 -52 24 -56
68 -11 57 56 55 132 -4 186 -20 18 -41 33 -48 33 -7 0 -21 2 -32 4 -11 2 -30
2 -42 -1z"/>
<path d="M1362 2257 c-16 -45 -15 -126 3 -157 13 -23 14 -16 15 83 0 59 -1
107 -3 107 -2 0 -8 -15 -15 -33z"/>
<path d="M865 2273 c-81 -17 -135 -81 -135 -158 0 -49 25 -110 41 -100 5 4 8
2 7 -3 -5 -16 43 -52 69 -52 22 0 23 3 23 71 0 62 2 70 18 67 14 -3 18 -16 20
-71 3 -62 4 -67 26 -67 47 0 56 26 56 158 l0 121 -27 14 c-35 18 -72 25 -98
20z"/>
<path d="M1032 2110 c0 -72 1 -73 11 -32 7 29 7 52 -1 75 -9 28 -10 23 -10
-43z"/>
</g>
</svg>
